<svg width="0" height="0" class="hidden">
    <!-- FILLED   -->
    <symbol xmlns="http://www.w3.org/2000/svg" viewBox="0 0 24 24" id="bed-filled">
        <path d="M20.25 10.8141C19.7772 10.6065 19.2664 10.4996 18.75 10.5H5.25C4.73368 10.4995 4.22288 10.6063 3.75 10.8136C3.08166 11.1059 2.51294 11.5865 2.11336 12.1968C1.71377 12.8071 1.50064 13.5205 1.5 14.25V19.5C1.5 19.6989 1.57902 19.8897 1.71967 20.0303C1.86032 20.171 2.05109 20.25 2.25 20.25C2.44891 20.25 2.63968 20.171 2.78033 20.0303C2.92098 19.8897 3 19.6989 3 19.5V19.125C3.00122 19.0259 3.04112 18.9312 3.11118 18.8612C3.18124 18.7911 3.27592 18.7512 3.375 18.75H20.625C20.7241 18.7512 20.8188 18.7911 20.8888 18.8612C20.9589 18.9312 20.9988 19.0259 21 19.125V19.5C21 19.6989 21.079 19.8897 21.2197 20.0303C21.3603 20.171 21.5511 20.25 21.75 20.25C21.9489 20.25 22.1397 20.171 22.2803 20.0303C22.421 19.8897 22.5 19.6989 22.5 19.5V14.25C22.4993 13.5206 22.2861 12.8073 21.8865 12.1971C21.4869 11.5869 20.9183 11.1063 20.25 10.8141ZM17.625 3.75H6.375C5.67881 3.75 5.01113 4.02656 4.51884 4.51884C4.02656 5.01113 3.75 5.67881 3.75 6.375V9.75C3.75002 9.77906 3.75679 9.80771 3.76979 9.8337C3.78278 9.85969 3.80163 9.8823 3.82486 9.89976C3.84809 9.91721 3.87505 9.92903 3.90363 9.93428C3.93221 9.93953 3.96162 9.93806 3.98953 9.93C4.39896 9.81025 4.82341 9.74964 5.25 9.75H5.44828C5.49456 9.75029 5.53932 9.73346 5.57393 9.70274C5.60855 9.67202 5.63058 9.62958 5.63578 9.58359C5.67669 9.21712 5.85115 8.87856 6.12586 8.63256C6.40056 8.38656 6.75625 8.25037 7.125 8.25H9.75C10.119 8.25003 10.475 8.38606 10.75 8.63209C11.025 8.87812 11.1997 9.21688 11.2406 9.58359C11.2458 9.62958 11.2679 9.67202 11.3025 9.70274C11.3371 9.73346 11.3818 9.75029 11.4281 9.75H12.5747C12.621 9.75029 12.6657 9.73346 12.7003 9.70274C12.735 9.67202 12.757 9.62958 12.7622 9.58359C12.8031 9.21736 12.9773 8.87899 13.2517 8.63303C13.5261 8.38706 13.8815 8.25072 14.25 8.25H16.875C17.244 8.25003 17.6 8.38606 17.875 8.63209C18.15 8.87812 18.3247 9.21688 18.3656 9.58359C18.3708 9.62958 18.3929 9.67202 18.4275 9.70274C18.4621 9.73346 18.5068 9.75029 18.5531 9.75H18.75C19.1766 9.74979 19.6011 9.81057 20.0105 9.93047C20.0384 9.93854 20.0679 9.94 20.0965 9.93473C20.1251 9.92945 20.1521 9.91759 20.1753 9.90009C20.1986 9.88258 20.2174 9.8599 20.2304 9.83385C20.2433 9.8078 20.2501 9.7791 20.25 9.75V6.375C20.25 5.67881 19.9734 5.01113 19.4812 4.51884C18.9889 4.02656 18.3212 3.75 17.625 3.75Z" />
    </symbol>
    <symbol xmlns="http://www.w3.org/2000/svg" viewBox="0 0 24 24" id="plane-filled">
        <path d="M8.74733 21.75H7.49952C7.37414 21.75 7.25077 21.7185 7.14069 21.6585C7.03062 21.5984 6.93735 21.5118 6.86941 21.4064C6.80147 21.301 6.76104 21.1803 6.7518 21.0552C6.74257 20.9302 6.76483 20.8048 6.81655 20.6906L9.83811 14.0227L5.30108 13.9219L3.64639 15.9267C3.33092 16.3233 3.07921 16.5 2.43702 16.5H1.59702C1.46402 16.5043 1.33195 16.4764 1.212 16.4188C1.09205 16.3612 0.987757 16.2755 0.907956 16.1691C0.796393 16.0186 0.686706 15.7636 0.793581 15.3998L1.72264 12.0717C1.72967 12.0469 1.73811 12.022 1.74749 11.9977C1.74795 11.9953 1.74795 11.9929 1.74749 11.9906C1.73781 11.9663 1.72951 11.9414 1.72264 11.9161L0.792643 8.56687C0.691862 8.21016 0.802018 7.96078 0.912643 7.81406C0.986929 7.71549 1.08331 7.63573 1.19403 7.58118C1.30475 7.52664 1.42672 7.49883 1.55014 7.5H2.43702C2.91655 7.5 3.38202 7.71516 3.65577 8.0625L5.27624 10.0336L9.83811 9.96609L6.81749 3.30984C6.7657 3.19568 6.74335 3.07036 6.75249 2.94533C6.76163 2.8203 6.80196 2.69956 6.8698 2.59414C6.93764 2.48872 7.03082 2.40198 7.14083 2.34186C7.25083 2.28175 7.37416 2.25016 7.49952 2.25H8.76092C8.9369 2.25354 9.10983 2.29667 9.26685 2.3762C9.42388 2.45572 9.56097 2.5696 9.66796 2.70937L15.5297 9.83438L18.2376 9.76312C18.4359 9.75234 18.9853 9.74859 19.1123 9.74859C21.7026 9.75 23.2495 10.5909 23.2495 12C23.2495 12.4434 23.0723 13.2656 21.8869 13.7887C21.187 14.0981 20.2533 14.2547 19.1114 14.2547C18.9858 14.2547 18.4378 14.2509 18.2367 14.2402L15.5292 14.168L9.65296 21.293C9.54588 21.4321 9.40891 21.5454 9.25216 21.6246C9.0954 21.7037 8.92288 21.7465 8.74733 21.75Z" />
    </symbol>
    <symbol xmlns="http://www.w3.org/2000/svg" viewBox="0 0 24 24" id="send-filled">
        <path d="M22.1716 1.83039C22.0182 1.67706 21.8238 1.57132 21.6118 1.52591C21.3997 1.4805 21.179 1.49736 20.9763 1.57445L2.2249 8.6718H2.22115C2.00494 8.75495 1.81968 8.90282 1.69066 9.09521C1.56163 9.2876 1.49515 9.51513 1.50028 9.74672C1.5054 9.97831 1.5819 10.2027 1.71931 10.3892C1.85672 10.5756 2.04835 10.7152 2.26802 10.7887L2.28724 10.7948L8.72318 13.543C8.84871 13.5812 8.98204 13.5857 9.10986 13.5561C9.23768 13.5266 9.35552 13.4641 9.45162 13.3748L19.781 3.74992C19.8118 3.71914 19.8483 3.69473 19.8885 3.67807C19.9287 3.66142 19.9718 3.65284 20.0154 3.65284C20.0589 3.65284 20.102 3.66142 20.1422 3.67807C20.1824 3.69473 20.219 3.71914 20.2497 3.74992C20.2805 3.7807 20.3049 3.81724 20.3216 3.85746C20.3382 3.89767 20.3468 3.94077 20.3468 3.9843C20.3468 4.02783 20.3382 4.07093 20.3216 4.11114C20.3049 4.15136 20.2805 4.18789 20.2497 4.21867L10.6244 14.5434C10.5351 14.6395 10.4726 14.7573 10.4431 14.8851C10.4135 15.0129 10.418 15.1463 10.4561 15.2718L13.2054 21.7115C13.2082 21.7209 13.211 21.7293 13.2143 21.7382C13.3643 22.1727 13.744 22.4793 14.2029 22.4999H14.2497C14.4814 22.5012 14.7081 22.4328 14.9004 22.3036C15.0927 22.1744 15.2416 21.9903 15.3279 21.7752L22.4243 3.02899C22.5025 2.82615 22.5202 2.605 22.4754 2.39229C22.4305 2.17957 22.325 1.98441 22.1716 1.83039Z" />
    </symbol>
    <!-- OUTLINE   -->
    <symbol xmlns="http://www.w3.org/2000/svg"  viewBox="0 0 24 24" id="bed-outlined">
        <path d="M2.25 19.5V14.25C2.25235 13.4551 2.56917 12.6934 3.13128 12.1313C3.69338 11.5692 4.45507 11.2523 5.25 11.25H18.75C19.5449 11.2523 20.3066 11.5692 20.8687 12.1313C21.4308 12.6934 21.7477 13.4551 21.75 14.25V19.5M18 11.25H4.5V6.375C4.50148 5.87818 4.6995 5.40212 5.05081 5.05081C5.40212 4.6995 5.87818 4.50148 6.375 4.5H17.625C18.1218 4.50148 18.5979 4.6995 18.9492 5.05081C19.3005 5.40212 19.4985 5.87818 19.5 6.375V11.25H18Z" stroke="black" stroke-width="1.5" stroke-linecap="round" stroke-linejoin="round"/>
        <path d="M2.25 19.5V19.125C2.25087 18.8269 2.36967 18.5413 2.58046 18.3305C2.79125 18.1197 3.0769 18.0009 3.375 18H20.625C20.9231 18.0009 21.2087 18.1197 21.4195 18.3305C21.6303 18.5413 21.7491 18.8269 21.75 19.125V19.5M5.25 11.25V10.5C5.25111 10.1025 5.40951 9.72163 5.69057 9.44057C5.97163 9.15951 6.35252 9.00111 6.75 9H10.5C10.8975 9.00111 11.2784 9.15951 11.5594 9.44057C11.8405 9.72163 11.9989 10.1025 12 10.5V11.25M12 11.25V10.5C12.0011 10.1025 12.1595 9.72163 12.4406 9.44057C12.7216 9.15951 13.1025 9.00111 13.5 9H17.25C17.6475 9.00111 18.0284 9.15951 18.3094 9.44057C18.5905 9.72163 18.7489 10.1025 18.75 10.5V11.25" stroke="black" stroke-width="1.5" stroke-linecap="round" stroke-linejoin="round"/>
    </symbol>
    <symbol xmlns="http://www.w3.org/2000/svg"   viewBox="0 0 24 24" id="plane-outlined">
        <path  d="M19.112 10.5C18.9526 10.5 18.4187 10.5047 18.2682 10.5141L15.2261 10.5938C15.2102 10.5947 15.1945 10.5913 15.1805 10.5838C15.1665 10.5764 15.1549 10.5652 15.1468 10.5516L9.07278 3.16687C9.03593 3.11811 8.98894 3.07792 8.93503 3.04911C8.88113 3.0203 8.82161 3.00354 8.76059 3H7.50012L10.922 10.5469C10.9302 10.5642 10.9337 10.5833 10.9322 10.6023C10.9308 10.6214 10.9244 10.6397 10.9137 10.6555C10.903 10.6714 10.8884 10.6842 10.8713 10.6926C10.8542 10.7011 10.8351 10.705 10.8161 10.7039L5.11184 10.7883C5.05248 10.7901 4.99353 10.7779 4.93978 10.7526C4.88603 10.7274 4.83898 10.6898 4.80246 10.643L3.06809 8.53359C2.92746 8.35078 2.66403 8.25234 2.43481 8.25234H1.55075C1.49028 8.25234 1.49918 8.30906 1.51559 8.36625L2.44559 11.7141C2.51589 11.8934 2.51589 12.0926 2.44559 12.2719L1.51465 15.6094C1.487 15.7008 1.49028 15.75 1.59762 15.75H2.43762C2.81918 15.75 2.87121 15.7003 3.06621 15.4547L4.8334 13.3125C4.87024 13.266 4.91735 13.2287 4.97103 13.2035C5.0247 13.1783 5.08349 13.1659 5.14278 13.1672L10.7997 13.2938C10.8202 13.2942 10.8404 13.2997 10.8584 13.3097C10.8764 13.3198 10.8917 13.334 10.9029 13.3513C10.9141 13.3686 10.921 13.3884 10.9228 13.4089C10.9247 13.4294 10.9215 13.4501 10.9136 13.4691L7.50012 21H8.74887C8.80977 20.9964 8.86918 20.9797 8.92299 20.951C8.97681 20.9223 9.02375 20.8822 9.06059 20.8336L15.1473 13.4531C15.1656 13.425 15.2411 13.4109 15.2734 13.4109L18.2687 13.4906C18.4234 13.5 18.9526 13.5047 19.1125 13.5047C21.1876 13.5047 22.5001 12.9342 22.5001 12C22.5001 11.0658 21.1932 10.5 19.112 10.5Z" stroke="black" stroke-width="1.5" stroke-linecap="round" stroke-linejoin="round"/>
    </symbol>
    <symbol xmlns="http://www.w3.org/2000/svg"   viewBox="0 0 24 24" id="send-outlined">
        <path d="M21.5622 2.43744L10.6403 13.3593M2.4897 9.37213L21.2397 2.27572C21.3073 2.24985 21.381 2.24412 21.4519 2.25922C21.5227 2.27432 21.5876 2.3096 21.6388 2.36081C21.69 2.41202 21.7253 2.47696 21.7404 2.54779C21.7555 2.61861 21.7498 2.6923 21.7239 2.75994L14.6275 21.5099C14.5993 21.5811 14.5499 21.642 14.4861 21.6843C14.4222 21.7266 14.347 21.7484 14.2704 21.7467C14.1938 21.7449 14.1196 21.7198 14.0578 21.6746C13.9959 21.6294 13.9494 21.5664 13.9244 21.494L10.765 13.7085C10.7282 13.5982 10.6662 13.498 10.5839 13.4157C10.5017 13.3335 10.4014 13.2715 10.2911 13.2346L2.50563 10.0781C2.43229 10.0537 2.36828 10.0072 2.32236 9.94501C2.27645 9.88283 2.25086 9.80798 2.24912 9.73071C2.24737 9.65343 2.26955 9.5775 2.31262 9.51332C2.35568 9.44913 2.41753 9.39982 2.4897 9.37213V9.37213Z" stroke="black" stroke-width="1.5" stroke-linecap="round" stroke-linejoin="round"/>
    </symbol>
</svg>

