<svg width="0" height="0" class="hidden">
    <!-- FILLED   -->
    <symbol xmlns="http://www.w3.org/2000/svg" viewBox="0 0 24 24" id="bed-filled">
        <path d="M20.25 10.8141C19.7772 10.6065 19.2664 10.4996 18.75 10.5H5.25C4.73368 10.4995 4.22288 10.6063 3.75 10.8136C3.08166 11.1059 2.51294 11.5865 2.11336 12.1968C1.71377 12.8071 1.50064 13.5205 1.5 14.25V19.5C1.5 19.6989 1.57902 19.8897 1.71967 20.0303C1.86032 20.171 2.05109 20.25 2.25 20.25C2.44891 20.25 2.63968 20.171 2.78033 20.0303C2.92098 19.8897 3 19.6989 3 19.5V19.125C3.00122 19.0259 3.04112 18.9312 3.11118 18.8612C3.18124 18.7911 3.27592 18.7512 3.375 18.75H20.625C20.7241 18.7512 20.8188 18.7911 20.8888 18.8612C20.9589 18.9312 20.9988 19.0259 21 19.125V19.5C21 19.6989 21.079 19.8897 21.2197 20.0303C21.3603 20.171 21.5511 20.25 21.75 20.25C21.9489 20.25 22.1397 20.171 22.2803 20.0303C22.421 19.8897 22.5 19.6989 22.5 19.5V14.25C22.4993 13.5206 22.2861 12.8073 21.8865 12.1971C21.4869 11.5869 20.9183 11.1063 20.25 10.8141ZM17.625 3.75H6.375C5.67881 3.75 5.01113 4.02656 4.51884 4.51884C4.02656 5.01113 3.75 5.67881 3.75 6.375V9.75C3.75002 9.77906 3.75679 9.80771 3.76979 9.8337C3.78278 9.85969 3.80163 9.8823 3.82486 9.89976C3.84809 9.91721 3.87505 9.92903 3.90363 9.93428C3.93221 9.93953 3.96162 9.93806 3.98953 9.93C4.39896 9.81025 4.82341 9.74964 5.25 9.75H5.44828C5.49456 9.75029 5.53932 9.73346 5.57393 9.70274C5.60855 9.67202 5.63058 9.62958 5.63578 9.58359C5.67669 9.21712 5.85115 8.87856 6.12586 8.63256C6.40056 8.38656 6.75625 8.25037 7.125 8.25H9.75C10.119 8.25003 10.475 8.38606 10.75 8.63209C11.025 8.87812 11.1997 9.21688 11.2406 9.58359C11.2458 9.62958 11.2679 9.67202 11.3025 9.70274C11.3371 9.73346 11.3818 9.75029 11.4281 9.75H12.5747C12.621 9.75029 12.6657 9.73346 12.7003 9.70274C12.735 9.67202 12.757 9.62958 12.7622 9.58359C12.8031 9.21736 12.9773 8.87899 13.2517 8.63303C13.5261 8.38706 13.8815 8.25072 14.25 8.25H16.875C17.244 8.25003 17.6 8.38606 17.875 8.63209C18.15 8.87812 18.3247 9.21688 18.3656 9.58359C18.3708 9.62958 18.3929 9.67202 18.4275 9.70274C18.4621 9.73346 18.5068 9.75029 18.5531 9.75H18.75C19.1766 9.74979 19.6011 9.81057 20.0105 9.93047C20.0384 9.93854 20.0679 9.94 20.0965 9.93473C20.1251 9.92945 20.1521 9.91759 20.1753 9.90009C20.1986 9.88258 20.2174 9.8599 20.2304 9.83385C20.2433 9.8078 20.2501 9.7791 20.25 9.75V6.375C20.25 5.67881 19.9734 5.01113 19.4812 4.51884C18.9889 4.02656 18.3212 3.75 17.625 3.75Z" />
    </symbol>
    <symbol xmlns="http://www.w3.org/2000/svg" viewBox="0 0 24 24" id="plane-filled">
        <path d="M8.74733 21.75H7.49952C7.37414 21.75 7.25077 21.7185 7.14069 21.6585C7.03062 21.5984 6.93735 21.5118 6.86941 21.4064C6.80147 21.301 6.76104 21.1803 6.7518 21.0552C6.74257 20.9302 6.76483 20.8048 6.81655 20.6906L9.83811 14.0227L5.30108 13.9219L3.64639 15.9267C3.33092 16.3233 3.07921 16.5 2.43702 16.5H1.59702C1.46402 16.5043 1.33195 16.4764 1.212 16.4188C1.09205 16.3612 0.987757 16.2755 0.907956 16.1691C0.796393 16.0186 0.686706 15.7636 0.793581 15.3998L1.72264 12.0717C1.72967 12.0469 1.73811 12.022 1.74749 11.9977C1.74795 11.9953 1.74795 11.9929 1.74749 11.9906C1.73781 11.9663 1.72951 11.9414 1.72264 11.9161L0.792643 8.56687C0.691862 8.21016 0.802018 7.96078 0.912643 7.81406C0.986929 7.71549 1.08331 7.63573 1.19403 7.58118C1.30475 7.52664 1.42672 7.49883 1.55014 7.5H2.43702C2.91655 7.5 3.38202 7.71516 3.65577 8.0625L5.27624 10.0336L9.83811 9.96609L6.81749 3.30984C6.7657 3.19568 6.74335 3.07036 6.75249 2.94533C6.76163 2.8203 6.80196 2.69956 6.8698 2.59414C6.93764 2.48872 7.03082 2.40198 7.14083 2.34186C7.25083 2.28175 7.37416 2.25016 7.49952 2.25H8.76092C8.9369 2.25354 9.10983 2.29667 9.26685 2.3762C9.42388 2.45572 9.56097 2.5696 9.66796 2.70937L15.5297 9.83438L18.2376 9.76312C18.4359 9.75234 18.9853 9.74859 19.1123 9.74859C21.7026 9.75 23.2495 10.5909 23.2495 12C23.2495 12.4434 23.0723 13.2656 21.8869 13.7887C21.187 14.0981 20.2533 14.2547 19.1114 14.2547C18.9858 14.2547 18.4378 14.2509 18.2367 14.2402L15.5292 14.168L9.65296 21.293C9.54588 21.4321 9.40891 21.5454 9.25216 21.6246C9.0954 21.7037 8.92288 21.7465 8.74733 21.75Z" />
    </symbol>
    <symbol xmlns="http://www.w3.org/2000/svg" viewBox="0 0 24 24" id="send-filled">
        <path d="M22.1716 1.83039C22.0182 1.67706 21.8238 1.57132 21.6118 1.52591C21.3997 1.4805 21.179 1.49736 20.9763 1.57445L2.2249 8.6718H2.22115C2.00494 8.75495 1.81968 8.90282 1.69066 9.09521C1.56163 9.2876 1.49515 9.51513 1.50028 9.74672C1.5054 9.97831 1.5819 10.2027 1.71931 10.3892C1.85672 10.5756 2.04835 10.7152 2.26802 10.7887L2.28724 10.7948L8.72318 13.543C8.84871 13.5812 8.98204 13.5857 9.10986 13.5561C9.23768 13.5266 9.35552 13.4641 9.45162 13.3748L19.781 3.74992C19.8118 3.71914 19.8483 3.69473 19.8885 3.67807C19.9287 3.66142 19.9718 3.65284 20.0154 3.65284C20.0589 3.65284 20.102 3.66142 20.1422 3.67807C20.1824 3.69473 20.219 3.71914 20.2497 3.74992C20.2805 3.7807 20.3049 3.81724 20.3216 3.85746C20.3382 3.89767 20.3468 3.94077 20.3468 3.9843C20.3468 4.02783 20.3382 4.07093 20.3216 4.11114C20.3049 4.15136 20.2805 4.18789 20.2497 4.21867L10.6244 14.5434C10.5351 14.6395 10.4726 14.7573 10.4431 14.8851C10.4135 15.0129 10.418 15.1463 10.4561 15.2718L13.2054 21.7115C13.2082 21.7209 13.211 21.7293 13.2143 21.7382C13.3643 22.1727 13.744 22.4793 14.2029 22.4999H14.2497C14.4814 22.5012 14.7081 22.4328 14.9004 22.3036C15.0927 22.1744 15.2416 21.9903 15.3279 21.7752L22.4243 3.02899C22.5025 2.82615 22.5202 2.605 22.4754 2.39229C22.4305 2.17957 22.325 1.98441 22.1716 1.83039Z" />
    </symbol>
    <symbol xmlns="http://www.w3.org/2000/svg" viewBox="0 0 24 24" id="show-filled">
        <path d="M12 15C13.6569 15 15 13.6569 15 12C15 10.3431 13.6569 9 12 9C10.3431 9 9 10.3431 9 12C9 13.6569 10.3431 15 12 15Z" fill="black" />
        <path d="M23.0081 11.1844C21.7678 9.26625 20.1586 7.63688 18.3548 6.47203C16.3593 5.18203 14.1562 4.5 11.984 4.5C9.9909 4.5 8.03105 5.06953 6.15886 6.19266C4.24965 7.33781 2.51996 9.01078 1.01761 11.1647C0.848014 11.4081 0.754608 11.6965 0.749266 11.9931C0.743924 12.2897 0.826888 12.5813 0.987615 12.8306C2.22558 14.768 3.81886 16.3997 5.59449 17.5486C7.59371 18.8438 9.74527 19.5 11.984 19.5C14.1736 19.5 16.3814 18.8236 18.3684 17.5444C20.1712 16.3833 21.7771 14.7478 23.0128 12.8137C23.168 12.5702 23.25 12.2872 23.2492 11.9984C23.2483 11.7096 23.1647 11.4271 23.0081 11.1844ZM12 16.5C11.1099 16.5 10.2399 16.2361 9.49989 15.7416C8.75987 15.2471 8.18309 14.5443 7.8425 13.7221C7.50191 12.8998 7.41279 11.995 7.58642 11.1221C7.76006 10.2492 8.18864 9.44736 8.81798 8.81802C9.44731 8.18868 10.2491 7.7601 11.1221 7.58647C11.995 7.41283 12.8998 7.50195 13.722 7.84254C14.5443 8.18314 15.2471 8.75991 15.7416 9.49993C16.236 10.24 16.5 11.11 16.5 12C16.4986 13.1931 16.024 14.3369 15.1804 15.1805C14.3368 16.0241 13.193 16.4986 12 16.5Z" fill="black" />
    </symbol>
    <symbol xmlns="http://www.w3.org/2000/svg" viewBox="0 0 24 24" id="hide-filled">
        <path d="M20.2501 21C20.1516 21.0001 20.054 20.9808 19.963 20.9431C19.872 20.9053 19.7894 20.85 19.7199 20.7801L3.21994 4.28013C3.08522 4.13833 3.01123 3.94952 3.01373 3.75395C3.01624 3.55838 3.09504 3.37152 3.23334 3.23322C3.37164 3.09492 3.5585 3.01612 3.75407 3.01361C3.94964 3.01111 4.13845 3.0851 4.28025 3.21982L20.7803 19.7198C20.8851 19.8247 20.9564 19.9583 20.9854 20.1038C21.0143 20.2492 20.9994 20.3999 20.9427 20.5369C20.8859 20.6739 20.7899 20.791 20.6666 20.8735C20.5433 20.9559 20.3984 20.9999 20.2501 21ZM11.6251 14.8054L9.19744 12.3778C9.18353 12.364 9.16565 12.3549 9.1463 12.3518C9.12696 12.3487 9.10713 12.3517 9.0896 12.3604C9.07206 12.3692 9.05771 12.3832 9.04855 12.4005C9.03939 12.4178 9.03589 12.4376 9.03853 12.457C9.13654 13.0868 9.43227 13.6692 9.88299 14.1199C10.3337 14.5706 10.916 14.8663 11.5459 14.9643C11.5653 14.967 11.585 14.9635 11.6024 14.9543C11.6197 14.9452 11.6337 14.9308 11.6424 14.9133C11.6512 14.8957 11.6542 14.8759 11.6511 14.8566C11.648 14.8372 11.6389 14.8194 11.6251 14.8054ZM12.3751 9.1945L14.8065 11.625C14.8204 11.639 14.8383 11.6482 14.8577 11.6514C14.8772 11.6547 14.8971 11.6517 14.9148 11.6429C14.9324 11.6341 14.9469 11.62 14.956 11.6026C14.9652 11.5851 14.9686 11.5653 14.9659 11.5458C14.8681 10.9151 14.5722 10.3319 14.1209 9.88059C13.6696 9.4293 13.0864 9.13336 12.4557 9.0356C12.4362 9.03258 12.4162 9.03582 12.3986 9.04484C12.381 9.05386 12.3668 9.06821 12.3578 9.08583C12.3489 9.10346 12.3457 9.12345 12.3488 9.14297C12.3519 9.16249 12.3611 9.18052 12.3751 9.1945Z" fill="black" />
        <path d="M23.0156 12.8137C23.1708 12.5702 23.2529 12.2872 23.252 11.9984C23.2512 11.7096 23.1675 11.4271 23.0109 11.1844C21.7706 9.26625 20.1614 7.63688 18.3577 6.47203C16.3594 5.18203 14.1562 4.5 11.985 4.5C10.8404 4.50157 9.7035 4.6882 8.61843 5.05266C8.58807 5.06276 8.56079 5.08046 8.5392 5.10409C8.51761 5.12772 8.50242 5.15647 8.49509 5.18763C8.48776 5.21878 8.48853 5.25129 8.49732 5.28207C8.50611 5.31284 8.52263 5.34085 8.54531 5.36344L10.7597 7.57781C10.7827 7.60086 10.8113 7.61752 10.8427 7.62615C10.8741 7.63478 10.9072 7.63508 10.9387 7.62703C11.6893 7.44412 12.4744 7.45752 13.2183 7.66595C13.9622 7.87438 14.6399 8.27082 15.1862 8.8171C15.7325 9.36338 16.1289 10.0411 16.3373 10.785C16.5458 11.5289 16.5592 12.3139 16.3762 13.0645C16.3683 13.096 16.3686 13.129 16.3773 13.1603C16.3859 13.1916 16.4025 13.2202 16.4255 13.2431L19.6106 16.4306C19.6438 16.4638 19.6881 16.4834 19.735 16.4855C19.7819 16.4876 19.8278 16.472 19.8637 16.4419C21.0898 15.3968 22.1522 14.1739 23.0156 12.8137ZM12 16.5C11.3188 16.5 10.6465 16.3454 10.0337 16.0478C9.42094 15.7502 8.88375 15.3173 8.46263 14.7819C8.04151 14.2464 7.74745 13.6223 7.60262 12.9567C7.45779 12.2911 7.46598 11.6012 7.62656 10.9392C7.63452 10.9077 7.63417 10.8747 7.62555 10.8434C7.61692 10.8121 7.60031 10.7836 7.57734 10.7606L4.44422 7.62609C4.41099 7.59283 4.36649 7.57327 4.31952 7.57127C4.27255 7.56927 4.22655 7.58499 4.19062 7.61531C3.04734 8.59078 1.9875 9.77766 1.01859 11.1647C0.84899 11.4081 0.755584 11.6965 0.750243 11.9931C0.744901 12.2897 0.827865 12.5813 0.988591 12.8306C2.22656 14.768 3.81937 16.3997 5.59547 17.5486C7.59656 18.8438 9.74625 19.5 11.985 19.5C13.1412 19.4969 14.2899 19.3143 15.39 18.9586C15.4206 18.9488 15.4482 18.9313 15.4702 18.9078C15.4921 18.8842 15.5076 18.8554 15.5152 18.8242C15.5227 18.7929 15.5222 18.7602 15.5134 18.7293C15.5047 18.6983 15.4882 18.6701 15.4655 18.6473L13.2403 16.4227C13.2174 16.3997 13.1888 16.3831 13.1575 16.3744C13.1262 16.3658 13.0932 16.3655 13.0617 16.3734C12.7141 16.4577 12.3577 16.5002 12 16.5Z" fill="black" />
    </symbol>
    <symbol xmlns="http://www.w3.org/2000/svg" viewBox="0 0 24 24" id="clear-filled">
        <path d="M12 2.25C6.62391 2.25 2.25 6.62391 2.25 12C2.25 17.3761 6.62391 21.75 12 21.75C17.3761 21.75 21.75 17.3761 21.75 12C21.75 6.62391 17.3761 2.25 12 2.25ZM15.5302 14.4698C15.6027 14.5388 15.6608 14.6216 15.7008 14.7133C15.7409 14.805 15.7622 14.9039 15.7635 15.004C15.7648 15.1041 15.746 15.2034 15.7083 15.2961C15.6706 15.3889 15.6147 15.4731 15.5439 15.5439C15.4731 15.6147 15.3889 15.6706 15.2961 15.7083C15.2034 15.746 15.1041 15.7648 15.004 15.7635C14.9039 15.7622 14.805 15.7409 14.7133 15.7008C14.6216 15.6608 14.5388 15.6027 14.4698 15.5302L12 13.0608L9.53016 15.5302C9.38836 15.6649 9.19955 15.7389 9.00398 15.7364C8.8084 15.7339 8.62155 15.6551 8.48325 15.5168C8.34495 15.3785 8.26614 15.1916 8.26364 14.996C8.26114 14.8005 8.33513 14.6116 8.46984 14.4698L10.9392 12L8.46984 9.53016C8.33513 9.38836 8.26114 9.19955 8.26364 9.00398C8.26614 8.8084 8.34495 8.62155 8.48325 8.48325C8.62155 8.34495 8.8084 8.26614 9.00398 8.26364C9.19955 8.26114 9.38836 8.33513 9.53016 8.46984L12 10.9392L14.4698 8.46984C14.6116 8.33513 14.8005 8.26114 14.996 8.26364C15.1916 8.26614 15.3785 8.34495 15.5168 8.48325C15.6551 8.62155 15.7339 8.8084 15.7364 9.00398C15.7389 9.19955 15.6649 9.38836 15.5302 9.53016L13.0608 12L15.5302 14.4698Z"  />
    </symbol>
    <!-- OUTLINE   -->
    <symbol xmlns="http://www.w3.org/2000/svg" viewBox="0 0 24 24" id="bed-outlined">
        <path d="M2.25 19.5V14.25C2.25235 13.4551 2.56917 12.6934 3.13128 12.1313C3.69338 11.5692 4.45507 11.2523 5.25 11.25H18.75C19.5449 11.2523 20.3066 11.5692 20.8687 12.1313C21.4308 12.6934 21.7477 13.4551 21.75 14.25V19.5M18 11.25H4.5V6.375C4.50148 5.87818 4.6995 5.40212 5.05081 5.05081C5.40212 4.6995 5.87818 4.50148 6.375 4.5H17.625C18.1218 4.50148 18.5979 4.6995 18.9492 5.05081C19.3005 5.40212 19.4985 5.87818 19.5 6.375V11.25H18Z" stroke="black" stroke-width="1.5" stroke-linecap="round" stroke-linejoin="round"/>
        <path d="M2.25 19.5V19.125C2.25087 18.8269 2.36967 18.5413 2.58046 18.3305C2.79125 18.1197 3.0769 18.0009 3.375 18H20.625C20.9231 18.0009 21.2087 18.1197 21.4195 18.3305C21.6303 18.5413 21.7491 18.8269 21.75 19.125V19.5M5.25 11.25V10.5C5.25111 10.1025 5.40951 9.72163 5.69057 9.44057C5.97163 9.15951 6.35252 9.00111 6.75 9H10.5C10.8975 9.00111 11.2784 9.15951 11.5594 9.44057C11.8405 9.72163 11.9989 10.1025 12 10.5V11.25M12 11.25V10.5C12.0011 10.1025 12.1595 9.72163 12.4406 9.44057C12.7216 9.15951 13.1025 9.00111 13.5 9H17.25C17.6475 9.00111 18.0284 9.15951 18.3094 9.44057C18.5905 9.72163 18.7489 10.1025 18.75 10.5V11.25" stroke="black" stroke-width="1.5" stroke-linecap="round" stroke-linejoin="round"/>
    </symbol>
    <symbol xmlns="http://www.w3.org/2000/svg" fill="none" viewBox="0 0 24 24" id="plane-outlined">
        <path d="M19.112 10.5C18.9526 10.5 18.4187 10.5047 18.2682 10.5141L15.2261 10.5938C15.2102 10.5947 15.1945 10.5913 15.1805 10.5838C15.1665 10.5764 15.1549 10.5652 15.1468 10.5516L9.07278 3.16687C9.03593 3.11811 8.98894 3.07792 8.93503 3.04911C8.88113 3.0203 8.82161 3.00354 8.76059 3H7.50012L10.922 10.5469C10.9302 10.5642 10.9337 10.5833 10.9322 10.6023C10.9308 10.6214 10.9244 10.6397 10.9137 10.6555C10.903 10.6714 10.8884 10.6842 10.8713 10.6926C10.8542 10.7011 10.8351 10.705 10.8161 10.7039L5.11184 10.7883C5.05248 10.7901 4.99353 10.7779 4.93978 10.7526C4.88603 10.7274 4.83898 10.6898 4.80246 10.643L3.06809 8.53359C2.92746 8.35078 2.66403 8.25234 2.43481 8.25234H1.55075C1.49028 8.25234 1.49918 8.30906 1.51559 8.36625L2.44559 11.7141C2.51589 11.8934 2.51589 12.0926 2.44559 12.2719L1.51465 15.6094C1.487 15.7008 1.49028 15.75 1.59762 15.75H2.43762C2.81918 15.75 2.87121 15.7003 3.06621 15.4547L4.8334 13.3125C4.87024 13.266 4.91735 13.2287 4.97103 13.2035C5.0247 13.1783 5.08349 13.1659 5.14278 13.1672L10.7997 13.2938C10.8202 13.2942 10.8404 13.2997 10.8584 13.3097C10.8764 13.3198 10.8917 13.334 10.9029 13.3513C10.9141 13.3686 10.921 13.3884 10.9228 13.4089C10.9247 13.4294 10.9215 13.4501 10.9136 13.4691L7.50012 21H8.74887C8.80977 20.9964 8.86918 20.9797 8.92299 20.951C8.97681 20.9223 9.02375 20.8822 9.06059 20.8336L15.1473 13.4531C15.1656 13.425 15.2411 13.4109 15.2734 13.4109L18.2687 13.4906C18.4234 13.5 18.9526 13.5047 19.1125 13.5047C21.1876 13.5047 22.5001 12.9342 22.5001 12C22.5001 11.0658 21.1932 10.5 19.112 10.5Z" stroke="black" stroke-width="1.5" stroke-linecap="round" stroke-linejoin="round" />
    </symbol>
    <symbol xmlns="http://www.w3.org/2000/svg" viewBox="0 0 24 24" id="send-outlined">
        <path d="M21.5622 2.43744L10.6403 13.3593M2.4897 9.37213L21.2397 2.27572C21.3073 2.24985 21.381 2.24412 21.4519 2.25922C21.5227 2.27432 21.5876 2.3096 21.6388 2.36081C21.69 2.41202 21.7253 2.47696 21.7404 2.54779C21.7555 2.61861 21.7498 2.6923 21.7239 2.75994L14.6275 21.5099C14.5993 21.5811 14.5499 21.642 14.4861 21.6843C14.4222 21.7266 14.347 21.7484 14.2704 21.7467C14.1938 21.7449 14.1196 21.7198 14.0578 21.6746C13.9959 21.6294 13.9494 21.5664 13.9244 21.494L10.765 13.7085C10.7282 13.5982 10.6662 13.498 10.5839 13.4157C10.5017 13.3335 10.4014 13.2715 10.2911 13.2346L2.50563 10.0781C2.43229 10.0537 2.36828 10.0072 2.32236 9.94501C2.27645 9.88283 2.25086 9.80798 2.24912 9.73071C2.24737 9.65343 2.26955 9.5775 2.31262 9.51332C2.35568 9.44913 2.41753 9.39982 2.4897 9.37213V9.37213Z" stroke="black" stroke-width="1.5" stroke-linecap="round" stroke-linejoin="round"/>
    </symbol>
    <symbol xmlns="http://www.w3.org/2000/svg" viewBox="0 0 24 24" id="show-outlined">
        <path d="M11.9841 5.25C8.33067 5.25 4.58301 7.36453 1.6327 11.5936C1.54849 11.7156 1.50234 11.8599 1.50009 12.0082C1.49783 12.1564 1.53958 12.302 1.62004 12.4266C3.88692 15.975 7.58442 18.75 11.9841 18.75C16.336 18.75 20.1094 15.9666 22.3805 12.4102C22.4591 12.2881 22.5009 12.1459 22.5009 12.0007C22.5009 11.8555 22.4591 11.7134 22.3805 11.5912C20.1043 8.07562 16.3032 5.25 11.9841 5.25Z" stroke="black" stroke-width="1.5" stroke-linecap="round" stroke-linejoin="round" />
        <path d="M12 15.75C14.0711 15.75 15.75 14.0711 15.75 12C15.75 9.92893 14.0711 8.25 12 8.25C9.92893 8.25 8.25 9.92893 8.25 12C8.25 14.0711 9.92893 15.75 12 15.75Z" stroke="black" stroke-width="1.5" stroke-miterlimit="10" />
    </symbol>
    <symbol xmlns="http://www.w3.org/2000/svg" viewBox="0 0 24 24" id="hide-outlined">
        <path d="M20.25 21C20.1515 21.0001 20.0539 20.9808 19.9629 20.9431C19.8719 20.9053 19.7893 20.85 19.7198 20.7801L3.2198 4.28013C3.08509 4.13833 3.01109 3.94952 3.0136 3.75395C3.0161 3.55838 3.0949 3.37152 3.23321 3.23322C3.37151 3.09492 3.55836 3.01612 3.75393 3.01361C3.94951 3.01111 4.13832 3.0851 4.28011 3.21982L20.7801 19.7198C20.8849 19.8247 20.9563 19.9583 20.9852 20.1038C21.0141 20.2492 20.9993 20.3999 20.9425 20.5369C20.8858 20.6739 20.7897 20.791 20.6665 20.8735C20.5432 20.9559 20.3982 20.9999 20.25 21ZM11.984 18C10.0392 18 8.16371 17.4243 6.40965 16.289C4.81261 15.2578 3.37496 13.7808 2.25183 12.0234V12.0197C3.18652 10.6804 4.21027 9.54794 5.30996 8.63482C5.31991 8.6265 5.32802 8.61621 5.33379 8.6046C5.33956 8.59298 5.34285 8.5803 5.34347 8.56735C5.34409 8.5544 5.34201 8.54146 5.33737 8.52935C5.33273 8.51724 5.32563 8.50623 5.31652 8.497L4.38277 7.56466C4.36618 7.54793 4.34389 7.53806 4.32035 7.53702C4.29682 7.53598 4.27375 7.54384 4.25574 7.55903C3.08761 8.54341 2.0034 9.75091 1.01761 11.1647C0.848014 11.4081 0.754608 11.6964 0.749266 11.9931C0.743924 12.2897 0.826888 12.5812 0.987615 12.8306C2.22558 14.7679 3.81886 16.3997 5.59449 17.5486C7.59371 18.8437 9.74527 19.5 11.984 19.5C13.1924 19.4962 14.3923 19.2971 15.5371 18.9103C15.5522 18.9052 15.5658 18.8963 15.5765 18.8845C15.5872 18.8726 15.5947 18.8583 15.5983 18.8427C15.602 18.8272 15.6015 18.811 15.5972 18.7957C15.5928 18.7803 15.5845 18.7664 15.5732 18.7551L14.5617 17.7436C14.5384 17.7208 14.5096 17.7046 14.4781 17.6964C14.4466 17.6881 14.4136 17.6883 14.3821 17.6967C13.5987 17.8984 12.793 18.0003 11.984 18ZM23.0081 11.1843C21.7678 9.26622 20.1586 7.63685 18.3548 6.472C16.3593 5.182 14.1562 4.49997 11.984 4.49997C10.7884 4.50209 9.60169 4.7054 8.47355 5.10138C8.45852 5.10661 8.44507 5.11558 8.43446 5.12745C8.42386 5.13931 8.41645 5.15368 8.41293 5.1692C8.40941 5.18473 8.40991 5.20089 8.41436 5.21616C8.41882 5.23144 8.42709 5.24534 8.4384 5.25653L9.44855 6.26669C9.47207 6.28981 9.50127 6.30631 9.5332 6.31454C9.56513 6.32277 9.59867 6.32244 9.63043 6.31357C10.3978 6.10599 11.1891 6.00055 11.984 5.99997C13.8914 5.99997 15.7612 6.58263 17.5411 7.73435C19.1681 8.78435 20.6226 10.26 21.7486 12C21.7494 12.001 21.7498 12.0024 21.7498 12.0037C21.7498 12.0051 21.7494 12.0064 21.7486 12.0075C20.9312 13.2942 19.917 14.4446 18.7429 15.4167C18.7329 15.425 18.7247 15.4353 18.7188 15.4469C18.7129 15.4585 18.7096 15.4713 18.7089 15.4843C18.7083 15.4973 18.7103 15.5103 18.715 15.5225C18.7196 15.5346 18.7267 15.5457 18.7359 15.555L19.6687 16.4873C19.6852 16.504 19.7074 16.5139 19.7308 16.515C19.7542 16.5161 19.7772 16.5084 19.7953 16.4934C21.0487 15.438 22.1337 14.1975 23.0128 12.8147C23.1682 12.571 23.2503 12.2878 23.2495 11.9988C23.2486 11.7098 23.1649 11.4271 23.0081 11.1843Z" fill="black" />
        <path d="M12 7.5C11.6629 7.49982 11.3269 7.53756 10.9983 7.6125C10.9817 7.61595 10.9663 7.62383 10.9538 7.63531C10.9414 7.64679 10.9322 7.66144 10.9274 7.6777C10.9226 7.69395 10.9223 7.71121 10.9265 7.72763C10.9307 7.74405 10.9393 7.75901 10.9514 7.77094L16.229 13.0472C16.241 13.0592 16.2559 13.0678 16.2723 13.0721C16.2888 13.0763 16.306 13.076 16.3223 13.0712C16.3385 13.0663 16.3532 13.0572 16.3647 13.0447C16.3761 13.0323 16.384 13.0169 16.3875 13.0003C16.5377 12.3413 16.5376 11.6568 16.3871 10.9979C16.2365 10.3389 15.9395 9.72228 15.5179 9.19385C15.0964 8.66542 14.5613 8.23874 13.9522 7.9455C13.3432 7.65226 12.6759 7.49999 12 7.5ZM7.77091 10.9528C7.75899 10.9408 7.74402 10.9322 7.7276 10.9279C7.71118 10.9237 7.69392 10.924 7.67767 10.9289C7.66141 10.9337 7.64676 10.9428 7.63528 10.9553C7.6238 10.9677 7.61592 10.9831 7.61247 10.9997C7.44248 11.7424 7.46382 12.516 7.67451 13.2482C7.88519 13.9803 8.27832 14.647 8.81704 15.1857C9.35577 15.7245 10.0224 16.1176 10.7546 16.3283C11.4868 16.539 12.2604 16.5603 13.0031 16.3903C13.0197 16.3869 13.0351 16.379 13.0475 16.3675C13.06 16.356 13.0691 16.3414 13.0739 16.3251C13.0787 16.3089 13.0791 16.2916 13.0748 16.2752C13.0706 16.2588 13.062 16.2438 13.05 16.2319L7.77091 10.9528Z" fill="black" />
    </symbol>
    <symbol xmlns="http://www.w3.org/2000/svg" viewBox="0 0 24 24" id="clear-outlined">
        <path d="M21 12C21 7.03125 16.9688 3 12 3C7.03125 3 3 7.03125 3 12C3 16.9688 7.03125 21 12 21C16.9688 21 21 16.9688 21 12Z" stroke="black" stroke-width="1.5" stroke-miterlimit="10" />
        <path d="M15 15L9 9M9 15L15 9" stroke="black" stroke-width="1.5" stroke-linecap="round" stroke-linejoin="round" />
    </symbol>
    <!--  General  -->
    <symbol xmlns="http://www.w3.org/2000/svg" fill="none" viewBox="0 0 24 24" id="back-chevron-general">
        <path d="M15.75 18.75L9 12L15.75 5.25" stroke="black" stroke-width="1.5" stroke-linecap="round" stroke-linejoin="round"/>
    </symbol>

    <symbol xmlns="http://www.w3.org/2000/svg" fill="none" viewBox="0 0 24 24" id="next-chevron-general">
        <path d="M9 5.25L15.75 12L9 18.75" stroke="black" stroke-width="1.5" stroke-linecap="round" stroke-linejoin="round"/>
    </symbol>

    <symbol xmlns="http://www.w3.org/2000/svg" fill="none" viewBox="0 0 24 24" id="select-down-general">
        <path d="M1.25 1L8 7.75L14.75 1" stroke="black" stroke-width="1.5" stroke-linecap="round" stroke-linejoin="round"/>
    </symbol>
</svg>

